# xmcd
#
# Track frame offsets:
#       150
#       18239
#       41399
#       58619
#       77354
#       92214
#       111618
#       135391
#       158794
#       178199
#       197617
#       218722
#       238446
#       259049
#
# Disc length: 3735 seconds
#
# Revision: 0
# Processed by: cddbd v1.4PL0 Copyright (c) Steve Scherf et al.
# Submitted via: CD-DA_X-Tractor v0.24
#
DISCID=bc0e950e
DTITLE=Allyson Taylor - Do You See Me
DYEAR=2002
DGENRE=
TTITLE0=Hell on Paper
TTITLE1=On the Verge
TTITLE2=High and Mighty
TTITLE3=The Dream
TTITLE4=Do You See Me
TTITLE5=When It's Over
TTITLE6=All Night Goodbye
TTITLE7=Kaleidescope
TTITLE8=We Can't Just Be Friends
TTITLE9=How Great A Love
TTITLE10=Toogoodoo Road
TTITLE11=Jaded
TTITLE12=No Boundries
TTITLE13=Happiness
EXTD=
EXTT0=
EXTT1=
EXTT2=
EXTT3=
EXTT4=
EXTT5=
EXTT6=
EXTT7=
EXTT8=
EXTT9=
EXTT10=
EXTT11=
EXTT12=
EXTT13=
PLAYORDER=
